<svg xmlns="http://www.w3.org/2000/svg" viewBox="0.0 0.0 1292.0 729.8" role="img" aria-label="Mermaid flowchart" data-ryen-renderer="0.1.0" preserveAspectRatio="xMidYMid meet"><defs>
<filter id="rym-cc96b2ce-purple-glow" x="-45%" y="-55%" width="190%" height="210%"><feDropShadow dx="0" dy="0" stdDeviation="5" flood-color="#a566ff" flood-opacity=".52"/></filter>
<filter id="rym-cc96b2ce-orange-glow" x="-45%" y="-55%" width="190%" height="210%"><feDropShadow dx="0" dy="0" stdDeviation="5" flood-color="#ff741c" flood-opacity=".48"/></filter>
<filter id="rym-cc96b2ce-green-glow" x="-45%" y="-55%" width="190%" height="210%"><feDropShadow dx="0" dy="0" stdDeviation="5" flood-color="#35d483" flood-opacity=".48"/></filter>
<filter id="rym-cc96b2ce-edge-glow" x="-35%" y="-45%" width="170%" height="190%"><feDropShadow dx="0" dy="0" stdDeviation="3" flood-color="#a566ff" flood-opacity=".42"/></filter>
<marker id="rym-cc96b2ce-arrow" markerWidth="15" markerHeight="13" refX="11.5" refY="6.5" orient="auto" markerUnits="userSpaceOnUse" viewBox="-2 0 15 13" overflow="visible"><path d="M-2 4.8 H1.1 V1.2 L11.5 6.5 L1.1 11.8 V8.2 H-2 Z" fill="#a566ff"/></marker>
<style>
.rym-edge{fill:none;stroke:#a566ff;stroke-width:3.4;stroke-linecap:butt;stroke-linejoin:round}
.rym-return{stroke:#b17cff;stroke-dasharray:8 8;stroke-width:2.5;opacity:.92}
.rym-edge-label{font:320 15px 'consolaslxgw','Consolas NF + LXGW WenKai Mono','LXGW WenKai Mono','Microsoft YaHei',sans-serif;fill:#fff;stroke:#21172b;stroke-width:4px;paint-order:stroke;text-anchor:middle;dominant-baseline:middle;letter-spacing:.2px}
.rym-group-title{font:320 16px 'consolaslxgw','Consolas NF + LXGW WenKai Mono','LXGW WenKai Mono','Microsoft YaHei',sans-serif;fill:#8f61b8;text-anchor:middle;letter-spacing:.3px}
.rym-node-text{font:320 16px 'consolaslxgw','Consolas NF + LXGW WenKai Mono','LXGW WenKai Mono','Microsoft YaHei',sans-serif;fill:#fff;text-anchor:middle;letter-spacing:.2px}
</style></defs><g class="rym-group"><rect x="730.0" y="160.0" width="180.0" height="214.0" rx="16.0" fill="#a566ff" fill-opacity=".08" stroke="#8f61b8" stroke-opacity=".78" stroke-width="1.8" stroke-dasharray="9 7"/><text class="rym-group-title" x="820.0" y="189.0">并行评估</text></g><g class="rym-node" data-node-id="S" filter="url(#rym-cc96b2ce-green-glow)"><rect x="58.0" y="240.0" width="132.0" height="64.0" rx="32.0" fill="#10291e" fill-opacity=".94" stroke="#35d483" stroke-width="2.3"/><text class="rym-node-text" x="124.0" y="277.0"><tspan x="124.0" dy="0.0">开始</tspan></text></g><g class="rym-node" data-node-id="R" filter="url(#rym-cc96b2ce-purple-glow)"><rect x="232.0" y="240.0" width="132.0" height="64.0" rx="12.0" fill="#21172b" fill-opacity=".94" stroke="#a566ff" stroke-width="2.3"/><text class="rym-node-text" x="298.0" y="277.0"><tspan x="298.0" dy="0.0">收集需求</tspan></text></g><g class="rym-node" data-node-id="RD" filter="url(#rym-cc96b2ce-orange-glow)"><path d="M 472.0 227.1 L 538.0 272.0 L 472.0 316.9 L 406.0 272.0 Z" fill="#352812" fill-opacity=".94" stroke="#ff741c" stroke-width="2.3" stroke-linejoin="round"/><text class="rym-node-text" x="472.0" y="277.0"><tspan x="472.0" dy="0.0">需求完整?</tspan></text></g><g class="rym-node" data-node-id="RF" filter="url(#rym-cc96b2ce-purple-glow)"><rect x="406.0" y="58.0" width="132.0" height="64.0" rx="12.0" fill="#21172b" fill-opacity=".94" stroke="#a566ff" stroke-width="2.3"/><text class="rym-node-text" x="472.0" y="95.0"><tspan x="472.0" dy="0.0">补充信息</tspan></text></g><g class="rym-node" data-node-id="PLAN" filter="url(#rym-cc96b2ce-purple-glow)"><rect x="580.0" y="240.0" width="132.0" height="64.0" rx="12.0" fill="#21172b" fill-opacity=".94" stroke="#a566ff" stroke-width="2.3"/><text class="rym-node-text" x="646.0" y="277.0"><tspan x="646.0" dy="0.0">方案设计</tspan></text></g><g class="rym-node" data-node-id="UI" filter="url(#rym-cc96b2ce-purple-glow)"><rect x="754.0" y="194.0" width="132.0" height="64.0" rx="12.0" fill="#21172b" fill-opacity=".94" stroke="#a566ff" stroke-width="2.3"/><text class="rym-node-text" x="820.0" y="231.0"><tspan x="820.0" dy="0.0">UI 原型</tspan></text></g><g class="rym-node" data-node-id="TECH" filter="url(#rym-cc96b2ce-purple-glow)"><rect x="754.0" y="286.0" width="132.0" height="64.0" rx="12.0" fill="#21172b" fill-opacity=".94" stroke="#a566ff" stroke-width="2.3"/><text class="rym-node-text" x="820.0" y="323.0"><tspan x="820.0" dy="0.0">技术评审</tspan></text></g><g class="rym-node" data-node-id="REVIEW" filter="url(#rym-cc96b2ce-purple-glow)"><rect x="928.0" y="240.0" width="132.0" height="64.0" rx="12.0" fill="#21172b" fill-opacity=".94" stroke="#a566ff" stroke-width="2.3"/><text class="rym-node-text" x="994.0" y="277.0"><tspan x="994.0" dy="0.0">综合评审</tspan></text></g><g class="rym-node" data-node-id="AD" filter="url(#rym-cc96b2ce-orange-glow)"><path d="M 1168.0 227.1 L 1234.0 272.0 L 1168.0 316.9 L 1102.0 272.0 Z" fill="#352812" fill-opacity=".94" stroke="#ff741c" stroke-width="2.3" stroke-linejoin="round"/><text class="rym-node-text" x="1168.0" y="277.0"><tspan x="1168.0" dy="0.0">评审通过?</tspan></text></g><g class="rym-node" data-node-id="AF" filter="url(#rym-cc96b2ce-purple-glow)"><rect x="1102.0" y="58.0" width="132.0" height="64.0" rx="12.0" fill="#21172b" fill-opacity=".94" stroke="#a566ff" stroke-width="2.3"/><text class="rym-node-text" x="1168.0" y="95.0"><tspan x="1168.0" dy="0.0">修改方案</tspan></text></g><g class="rym-node" data-node-id="DEV" filter="url(#rym-cc96b2ce-purple-glow)"><rect x="1102.0" y="458.9" width="132.0" height="64.0" rx="12.0" fill="#21172b" fill-opacity=".94" stroke="#a566ff" stroke-width="2.3"/><text class="rym-node-text" x="1168.0" y="495.9"><tspan x="1168.0" dy="0.0">开发实施</tspan></text></g><g class="rym-node" data-node-id="TD" filter="url(#rym-cc96b2ce-orange-glow)"><path d="M 994.0 446.0 L 1060.0 490.9 L 994.0 535.8 L 928.0 490.9 Z" fill="#352812" fill-opacity=".94" stroke="#ff741c" stroke-width="2.3" stroke-linejoin="round"/><text class="rym-node-text" x="994.0" y="495.9"><tspan x="994.0" dy="0.0">测试通过?</tspan></text></g><g class="rym-node" data-node-id="TF" filter="url(#rym-cc96b2ce-purple-glow)"><rect x="928.0" y="607.8" width="132.0" height="64.0" rx="12.0" fill="#21172b" fill-opacity=".94" stroke="#a566ff" stroke-width="2.3"/><text class="rym-node-text" x="994.0" y="644.8"><tspan x="994.0" dy="0.0">修复问题</tspan></text></g><g class="rym-node" data-node-id="PUB" filter="url(#rym-cc96b2ce-purple-glow)"><rect x="754.0" y="458.9" width="132.0" height="64.0" rx="12.0" fill="#21172b" fill-opacity=".94" stroke="#a566ff" stroke-width="2.3"/><text class="rym-node-text" x="820.0" y="495.9"><tspan x="820.0" dy="0.0">发布上线</tspan></text></g><g class="rym-node" data-node-id="ARCHIVE" filter="url(#rym-cc96b2ce-purple-glow)"><rect x="580.0" y="458.9" width="132.0" height="64.0" rx="12.0" fill="#21172b" fill-opacity=".94" stroke="#a566ff" stroke-width="2.3"/><text class="rym-node-text" x="646.0" y="495.9"><tspan x="646.0" dy="0.0">复盘归档</tspan></text></g><g class="rym-node" data-node-id="END" filter="url(#rym-cc96b2ce-green-glow)"><rect x="406.0" y="458.9" width="132.0" height="64.0" rx="32.0" fill="#10291e" fill-opacity=".94" stroke="#35d483" stroke-width="2.3"/><text class="rym-node-text" x="472.0" y="495.9"><tspan x="472.0" dy="0.0">结束</tspan></text></g><path class="rym-edge" d="M 190.0 272.0 C 211.0 272.0, 194.0 272.0, 206.0 272.0 L 232.0 272.0" marker-end="url(#rym-cc96b2ce-arrow)" data-edge="0"/><path class="rym-edge" d="M 364.0 272.0 C 385.0 272.0, 368.0 272.0, 380.0 272.0 L 406.0 272.0" marker-end="url(#rym-cc96b2ce-arrow)" data-edge="1"/><path class="rym-edge" d="M 472.0 227.1 C 472.0 199.1, 472.0 199.1, 472.0 148.0 L 472.0 122.0" marker-end="url(#rym-cc96b2ce-arrow)" data-edge="2"/><text class="rym-edge-label" x="490.0" y="174.6">否</text><path class="rym-edge" d="M 538.0 272.0 C 559.0 272.0, 542.0 272.0, 554.0 272.0 L 580.0 272.0" marker-end="url(#rym-cc96b2ce-arrow)" data-edge="3"/><text class="rym-edge-label" x="559.0" y="260.0">是</text><path class="rym-edge" d="M 712.0 272.0 C 733.0 272.0, 716.0 226.0, 728.0 226.0 L 754.0 226.0" marker-end="url(#rym-cc96b2ce-arrow)" data-edge="4"/><path class="rym-edge" d="M 712.0 272.0 C 733.0 272.0, 716.0 318.0, 728.0 318.0 L 754.0 318.0" marker-end="url(#rym-cc96b2ce-arrow)" data-edge="5"/><path class="rym-edge" d="M 886.0 226.0 C 907.0 226.0, 890.0 272.0, 902.0 272.0 L 928.0 272.0" marker-end="url(#rym-cc96b2ce-arrow)" data-edge="6"/><path class="rym-edge" d="M 886.0 318.0 C 907.0 318.0, 890.0 272.0, 902.0 272.0 L 928.0 272.0" marker-end="url(#rym-cc96b2ce-arrow)" data-edge="7"/><path class="rym-edge" d="M 1060.0 272.0 C 1081.0 272.0, 1064.0 272.0, 1076.0 272.0 L 1102.0 272.0" marker-end="url(#rym-cc96b2ce-arrow)" data-edge="8"/><path class="rym-edge" d="M 1168.0 227.1 C 1168.0 199.1, 1168.0 199.1, 1168.0 148.0 L 1168.0 122.0" marker-end="url(#rym-cc96b2ce-arrow)" data-edge="9"/><text class="rym-edge-label" x="1186.0" y="174.6">否</text><path class="rym-edge" d="M 1168.0 316.9 C 1168.0 344.9, 1168.0 344.9, 1168.0 432.9 L 1168.0 458.9" marker-end="url(#rym-cc96b2ce-arrow)" data-edge="10"/><text class="rym-edge-label" x="1186.0" y="387.9">是</text><path class="rym-edge" d="M 1102.0 490.9 C 1081.0 490.9, 1098.0 490.9, 1086.0 490.9 L 1060.0 490.9" marker-end="url(#rym-cc96b2ce-arrow)" data-edge="11"/><path class="rym-edge" d="M 994.0 535.8 C 994.0 563.8, 994.0 563.8, 994.0 581.8 L 994.0 607.8" marker-end="url(#rym-cc96b2ce-arrow)" data-edge="12"/><text class="rym-edge-label" x="1012.0" y="571.8">否</text><path class="rym-edge" d="M 928.0 490.9 C 907.0 490.9, 924.0 490.9, 912.0 490.9 L 886.0 490.9" marker-end="url(#rym-cc96b2ce-arrow)" data-edge="13"/><text class="rym-edge-label" x="907.0" y="478.9">是</text><path class="rym-edge" d="M 754.0 490.9 C 733.0 490.9, 750.0 490.9, 738.0 490.9 L 712.0 490.9" marker-end="url(#rym-cc96b2ce-arrow)" data-edge="14"/><path class="rym-edge" d="M 580.0 490.9 C 559.0 490.9, 576.0 490.9, 564.0 490.9 L 538.0 490.9" marker-end="url(#rym-cc96b2ce-arrow)" data-edge="15"/><path class="rym-edge rym-return" d="M 406.0 90.0 C 332.6 90.0, 298.0 166.6, 298.0 214.0 L 298.0 240.0" marker-end="url(#rym-cc96b2ce-arrow)" data-edge="16"/><path class="rym-edge rym-return" d="M 1102.0 90.0 C 928.0 90.0, 646.0 66.0, 646.0 214.0 L 646.0 240.0" marker-end="url(#rym-cc96b2ce-arrow)" data-edge="17"/><path class="rym-edge rym-return" d="M 1060.0 639.8 C 1120.0 639.8, 1168.0 582.9, 1168.0 548.9 L 1168.0 522.9" marker-end="url(#rym-cc96b2ce-arrow)" data-edge="18"/></svg>